<?xml version="1.0" encoding="UTF-8" standalone="no"?>
<!-- Created with Inkscape (http://www.inkscape.org/) -->

<svg
   xmlns:dc="http://purl.org/dc/elements/1.1/"
   xmlns:cc="http://creativecommons.org/ns#"
   xmlns:rdf="http://www.w3.org/1999/02/22-rdf-syntax-ns#"
   xmlns:svg="http://www.w3.org/2000/svg"
   xmlns="http://www.w3.org/2000/svg"
   xmlns:sodipodi="http://sodipodi.sourceforge.net/DTD/sodipodi-0.dtd"
   xmlns:inkscape="http://www.inkscape.org/namespaces/inkscape"
   width="215mm"
   height="215mm"
   viewBox="0 0 215 215"
   version="1.1"
   id="svg8"
   inkscape:export-filename="/home/dci/Desktop/andreglock/WD21R01/random/img/favpenis.png"
   inkscape:export-xdpi="12.34444"
   inkscape:export-ydpi="12.34444"
   inkscape:version="0.92.5 (2060ec1f9f, 2020-04-08)"
   sodipodi:docname="penis.svg">
  <defs
     id="defs2" />
  <sodipodi:namedview
     id="base"
     pagecolor="#ffffff"
     bordercolor="#666666"
     borderopacity="1.0"
     inkscape:pageopacity="0.0"
     inkscape:pageshadow="2"
     inkscape:zoom="0.49497475"
     inkscape:cx="504.74145"
     inkscape:cy="548.24965"
     inkscape:document-units="mm"
     inkscape:current-layer="layer1"
     showgrid="false"
     inkscape:window-width="1920"
     inkscape:window-height="1015"
     inkscape:window-x="0"
     inkscape:window-y="1050"
     inkscape:window-maximized="1" />
  <metadata
     id="metadata5">
    <rdf:RDF>
      <cc:Work
         rdf:about="">
        <dc:format>image/svg+xml</dc:format>
        <dc:type
           rdf:resource="http://purl.org/dc/dcmitype/StillImage" />
        <dc:title></dc:title>
      </cc:Work>
    </rdf:RDF>
  </metadata>
  <g
     inkscape:label="Layer 1"
     inkscape:groupmode="layer"
     id="layer1"
     transform="translate(0,-82)">
    <ellipse
       style="fill:#000000;stroke-width:0.26458332"
       id="path10"
       cx="66.410606"
       cy="256.4606"
       rx="41.577381"
       ry="40.443455" />
    <ellipse
       style="fill:#ffffff;stroke-width:0.26458332"
       id="path31"
       cx="66.259422"
       cy="256.46063"
       rx="33.639881"
       ry="32.883926" />
    <ellipse
       style="fill:#000000;stroke-width:0.26458332"
       id="path10-6"
       cx="147.86436"
       cy="256.27164"
       rx="41.577381"
       ry="40.443455" />
    <ellipse
       style="fill:#ffffff;stroke-width:0.26458332"
       id="path31-7"
       cx="147.71318"
       cy="256.27164"
       rx="33.639881"
       ry="32.883926" />
    <ellipse
       style="fill:#000000;stroke-width:0.26458332"
       id="path10-6-5"
       cx="107.04305"
       cy="170.28203"
       rx="41.577381"
       ry="86.745529" />
    <ellipse
       style="fill:#ffffff;stroke-width:0.26458332"
       id="path31-7-3"
       cx="106.89186"
       cy="170.28209"
       rx="33.639881"
       ry="70.531403" />
    <path
       style="fill:#ffffff;stroke-width:1"
       d="M 381.06317,594.71297 C 335.68932,576.39983 300.51944,511.87052 284.03124,416.67978 277.97513,381.71632 277.5029,290.63481 283.19325,255.05538 300.03182,149.77075 343.25121,77.550205 394.40064,69.225423 c 22.68832,-3.69262 42.37715,4.366123 63.87379,26.143875 58.4965,59.261482 86.12902,199.475162 64.51646,327.371402 -13.72015,81.19153 -49.20733,148.67381 -88.76012,168.78586 -14.80774,7.52954 -38.65267,8.96397 -52.9676,3.18641 z"
       id="path69"
       inkscape:connector-curvature="0"
       transform="matrix(0.26458333,0,0,0.26458333,0,82)" />
    <path
       style="fill:#ffffff;stroke-width:1"
       d="m 218.26565,778.40321 c -40.0206,-10.8473 -74.08948,-41.76484 -87.23687,-79.16754 -6.25871,-17.80527 -7.82115,-50.49367 -3.26377,-68.28285 5.06156,-19.75722 14.67811,-37.29774 28.82642,-52.57922 16.25299,-17.55473 31.27954,-27.51721 53.09624,-35.20237 15.06223,-5.30582 20.09365,-6.09288 39.48518,-6.17659 30.84382,-0.13316 31.19899,0.0243 38.07366,16.87873 18.3804,45.06268 50.00272,84.32743 79.62202,98.86494 l 10.61954,5.21218 -1.19663,10.1794 c -6.14114,52.24111 -37.04494,90.68668 -87.16645,108.43854 -17.50402,6.1995 -51.50745,7.07995 -70.85934,1.83478 z"
       id="path71"
       inkscape:connector-curvature="0"
       transform="matrix(0.26458333,0,0,0.26458333,0,82)" />
    <path
       style="fill:#ffffff;stroke-width:1"
       d="m 532.24585,779.21141 c -18.17818,-3.6115 -44.12133,-16.60238 -58.18158,-29.13409 -22.46987,-20.02707 -38.2376,-50.25435 -41.17331,-78.93064 l -1.35375,-13.22352 8.76993,-3.94907 c 30.62499,-13.79034 63.55325,-55.59575 85.22303,-108.19834 2.51853,-6.11366 4.24245,-7.48042 10.80201,-8.56406 25.75592,-4.25492 59.06754,1.09156 82.18063,13.18991 16.5432,8.65939 42.85259,34.96877 51.51198,51.51197 25.12944,48.00817 16.64675,103.32762 -21.78184,142.04907 -30.6683,30.90202 -73.05077,43.78104 -115.9971,35.24877 z"
       id="path73"
       inkscape:connector-curvature="0"
       transform="matrix(0.26458333,0,0,0.26458333,0,82)" />
  </g>
</svg>
